<svg xmlns="http://www.w3.org/2000/svg" width="48" height="48" viewBox="0 0 48 48" role="img" aria-labelledby="title desc">
  <title id="title">ITS</title>
  <desc id="desc">Compact ITS logo mark for the dashboard header.</desc>
  <rect x="3" y="3" width="42" height="42" rx="8" fill="#f8fbff"/>
  <rect x="3.5" y="3.5" width="41" height="41" rx="7.5" fill="none" stroke="#dbe7f5"/>
  <path d="M24 8 38 15.5v14.8c0 6.2-5.1 10-14 13.7-8.9-3.7-14-7.5-14-13.7V15.5L24 8Z" fill="#113f7c"/>
  <path d="M24 12.2 33.9 17.5v11.8c0 4.6-3.3 7.6-9.9 10.5-6.6-2.9-9.9-5.9-9.9-10.5V17.5L24 12.2Z" fill="#f6c33b"/>
  <path d="M24 15.2 31.2 19v9.4c0 3.4-2.2 5.8-7.2 8.1-5-2.3-7.2-4.7-7.2-8.1V19L24 15.2Z" fill="#113f7c"/>
  <text x="24" y="28.5" text-anchor="middle" font-family="Segoe UI, Arial, sans-serif" font-size="9.6" font-weight="800" fill="#ffffff" letter-spacing=".3">ITS</text>
</svg>
